<svg width="20" height="20" viewBox="0 0 20 20" fill="none" xmlns="http://www.w3.org/2000/svg">
<mask id="mask0_682_33564" style="mask-type:alpha" maskUnits="userSpaceOnUse" x="0" y="0" width="20" height="20">
<rect width="20" height="20" fill="#D9D9D9"/>
</mask>
<g mask="url(#mask0_682_33564)">
<path d="M9.1665 14.166H10.8332V9.16602H9.1665V14.166ZM9.99984 7.49935C10.2359 7.49935 10.434 7.41935 10.594 7.25935C10.7534 7.0999 10.8332 6.90213 10.8332 6.66602C10.8332 6.4299 10.7534 6.23185 10.594 6.07185C10.434 5.9124 10.2359 5.83268 9.99984 5.83268C9.76373 5.83268 9.56595 5.9124 9.4065 6.07185C9.2465 6.23185 9.1665 6.4299 9.1665 6.66602C9.1665 6.90213 9.2465 7.0999 9.4065 7.25935C9.56595 7.41935 9.76373 7.49935 9.99984 7.49935ZM9.99984 18.3327C8.84706 18.3327 7.76373 18.1138 6.74984 17.676C5.73595 17.2388 4.854 16.6452 4.104 15.8952C3.354 15.1452 2.76039 14.2632 2.32317 13.2493C1.88539 12.2355 1.6665 11.1521 1.6665 9.99935C1.6665 8.84657 1.88539 7.76324 2.32317 6.74935C2.76039 5.73546 3.354 4.85352 4.104 4.10352C4.854 3.35352 5.73595 2.75963 6.74984 2.32185C7.76373 1.88463 8.84706 1.66602 9.99984 1.66602C11.1526 1.66602 12.2359 1.88463 13.2498 2.32185C14.2637 2.75963 15.1457 3.35352 15.8957 4.10352C16.6457 4.85352 17.2393 5.73546 17.6765 6.74935C18.1143 7.76324 18.3332 8.84657 18.3332 9.99935C18.3332 11.1521 18.1143 12.2355 17.6765 13.2493C17.2393 14.2632 16.6457 15.1452 15.8957 15.8952C15.1457 16.6452 14.2637 17.2388 13.2498 17.676C12.2359 18.1138 11.1526 18.3327 9.99984 18.3327ZM9.99984 16.666C11.8609 16.666 13.4373 16.0202 14.729 14.7285C16.0207 13.4368 16.6665 11.8605 16.6665 9.99935C16.6665 8.13824 16.0207 6.56185 14.729 5.27018C13.4373 3.97852 11.8609 3.33268 9.99984 3.33268C8.13873 3.33268 6.56234 3.97852 5.27067 5.27018C3.979 6.56185 3.33317 8.13824 3.33317 9.99935C3.33317 11.8605 3.979 13.4368 5.27067 14.7285C6.56234 16.0202 8.13873 16.666 9.99984 16.666Z" fill="#1C1B1F"/>
</g>
</svg>
